<?xml version="1.0" standalone="no"?>
<!DOCTYPE svg PUBLIC "-//W3C//DTD SVG 20010904//EN"
 "http://www.w3.org/TR/2001/REC-SVG-20010904/DTD/svg10.dtd">
<svg version="1.0" xmlns="http://www.w3.org/2000/svg"
 width="192.000000pt" height="192.000000pt" viewBox="0 0 192.000000 192.000000"
 preserveAspectRatio="xMidYMid meet">

<g transform="translate(0.000000,192.000000) scale(0.100000,-0.100000)"
fill="#000000" stroke="none">
<path d="M410 1738 c-33 -17 -51 -35 -67 -68 l-23 -44 0 -666 0 -666 23 -44
c16 -33 34 -51 67 -68 44 -22 45 -22 550 -22 505 0 506 0 550 23 33 16 51 34
68 67 l22 44 0 666 0 666 -23 44 c-31 63 -87 90 -184 90 l-73 0 0 -60 0 -60
68 0 c40 0 73 -5 80 -12 17 -17 17 -1319 0 -1336 -17 -17 -999 -17 -1016 0
-17 17 -17 1319 0 1336 7 7 40 12 80 12 l68 0 0 60 0 60 -73 0 c-56 0 -83 -5
-117 -22z"/>
<path d="M586 579 c-10 -30 -25 -93 -23 -95 4 -5 91 18 99 25 5 4 -10 24 -32
46 -28 28 -41 34 -44 24z"/>
</g>
</svg>
